# xmcd
#
# Track frame offsets: 
#        150
#        20971
#        51974
#        79030
#        103537
#        134168
#
# Disc length: 2593 seconds
#
# Revision: 2
# Processed by: cddbd v1.5.2PL0 Copyright (c) Steve Scherf et al.
# Submitted via: ExactAudioCopy v1.0b2
#
DISCID=520a1f06
DTITLE=Graham Collier Septet - Deep Dark Blue Centre
DYEAR=2000
DGENRE=Contemporary Jazz
TTITLE0=Blue Walls
TTITLE1=El Miklos
TTITLE2=Hirayoshi Suite
TTITLE3=Crumblin' Cookie
TTITLE4=Conversations
TTITLE5=Deep Dark Blue Centre
EXTD=YEAR: 1967
EXTT0=
EXTT1=
EXTT2=
EXTT3=
EXTT4=
EXTT5=
PLAYORDER=
